<svg width="169" height="96" viewBox="0 0 169 96" fill="none" xmlns="http://www.w3.org/2000/svg">
<rect x="5.78735" y="65.4547" width="157.425" height="27.1515" rx="13.5758" fill="white"/>
<path d="M65.4469 15.7255C66.9374 14.9505 68.5925 14.5459 70.2724 14.5459H73.4969C74.5058 14.5459 75.4907 14.8542 76.3196 15.4296L77.1001 15.9714C79.8299 17.8662 83.5932 16.154 83.9582 12.8512C84.0594 11.9356 84.4464 11.0752 85.0642 10.392L87.1278 8.11014C88.9378 6.10862 91.2911 4.67704 93.9007 3.98997L94.5807 3.81094C96.8367 3.21697 99.1941 3.11512 101.493 3.51232L104.612 4.05117C108.384 4.7029 111.946 6.24504 115.002 8.54952C117.536 10.4596 119.666 12.8517 121.272 15.5883L122.118 17.0314C122.886 18.3395 123.437 19.7632 123.75 21.2472C124.322 23.9596 124.081 26.7806 123.056 29.3563L120.784 35.066C120.267 36.3649 119.446 37.5205 118.389 38.4354C115.277 41.1292 114.472 45.6321 116.458 49.2372L119.448 54.6643C119.812 55.3246 120.068 56.0387 120.206 56.7798C121.006 61.0699 117.767 65.0534 113.404 65.1451L61.4212 66.2366C53.9696 66.3931 47.8445 60.3952 47.8445 52.9419C47.8445 51.2785 48.1566 49.6299 48.7645 48.0817L49.5078 46.1888C50.3147 44.1339 51.6346 42.32 53.3416 40.9201C56.3344 38.4657 58.0694 34.7991 58.0694 30.9286V29.9989C58.0694 27.9924 58.475 26.0066 59.2619 24.1608L60.6505 20.9037C61.601 18.674 63.2965 16.8437 65.4469 15.7255Z" fill="white"/>
<path d="M95.3039 2.12042C94.4293 2.39194 90.4423 4.40891 89.1304 5.23638C87.8957 5.99921 87.1369 6.58103 85.8507 7.73174C84.3202 9.11517 84.243 9.23154 83.2913 11.1321C82.5839 12.5673 82.3395 13.2525 81.9665 14.7523C81.7222 15.7738 81.4521 16.6142 81.3749 16.6142C81.2592 16.6142 79.7801 15.8384 78.391 15.0626C76.2818 13.8732 74.8027 13.2525 73.0921 12.813C72.0889 12.5544 71.0085 12.3475 70.687 12.3475C70.3526 12.3475 69.1565 12.5802 68.0247 12.8647C66.3527 13.2784 65.6839 13.5241 64.3977 14.1705C63.536 14.6101 62.6229 15.1273 62.3785 15.3212C61.8897 15.7091 61.1824 17.1055 58.713 22.497C57.2467 25.6776 57.1053 26.0655 56.5265 28.4057C55.9992 30.4873 55.9606 31.5475 56.3336 33.1378C56.4751 33.7325 56.6551 34.8833 56.7194 35.6849C56.9123 37.8958 56.8866 37.9346 54.7902 38.9818C53.8642 39.4344 53.1182 39.861 53.1182 39.9127C53.1182 39.9645 52.951 40.0938 52.7324 40.2101C52.1279 40.5204 49.9543 42.7572 49.6456 43.3907C49.4913 43.701 49.2855 44.0501 49.1826 44.1536C48.8096 44.5932 47.292 47.8901 46.9318 49.0538C46.3659 50.8509 45.6971 53.5532 45.6071 54.3031C45.5556 54.8202 45.6585 55.4279 46.1601 57.3414C46.5074 58.6602 46.9704 60.2505 47.2019 60.8841C47.4592 61.634 47.5749 62.1511 47.5235 62.3709C47.4206 62.8364 46.8032 64.4913 46.6875 64.6206C46.6489 64.6723 45.5428 64.4525 44.2309 64.1293C42.8547 63.7932 41.5686 63.5475 41.157 63.5475C40.7455 63.5475 39.3821 63.819 37.9416 64.181L35.4337 64.8016L32.9385 64.181C31.4723 63.8061 30.1476 63.5475 29.7232 63.5475C29.3116 63.5475 27.9483 63.819 26.4177 64.194C24.3985 64.6982 23.7554 64.8146 23.5111 64.7111C22.8294 64.4267 19.4211 63.6509 18.5208 63.5992C17.6719 63.5346 17.2604 63.5992 15.1768 64.1164C12.373 64.8275 11.9872 64.9697 9.4663 66.2368C6.93259 67.5168 6.70108 67.7495 5.41493 70.4C4.00017 73.2962 3.9873 73.3479 3.9873 78.0929C3.9873 83.0578 4.03875 83.3293 5.78791 86.8073C7.02262 89.2639 7.34415 89.5742 9.8007 90.8024C11.7814 91.798 11.9228 91.8497 13.5691 92.2893C14.4437 92.522 15.0482 92.5608 17.6719 92.5996C20.4629 92.6384 20.8359 92.6255 21.9162 92.3669C22.5593 92.2117 23.1767 92.0307 23.2924 91.979C23.421 91.9144 24.0898 92.0178 25.0287 92.2505C26.4949 92.6255 26.6878 92.6384 29.4145 92.6384C31.8582 92.6384 32.4241 92.5996 33.4015 92.3669C34.0189 92.2247 34.6234 92.0437 34.752 91.979C34.8935 91.9014 35.4851 91.9919 36.514 92.2505C37.9931 92.6255 38.186 92.6384 40.8869 92.6384C44.1666 92.6384 45.1569 92.4703 47.1248 91.5653L48.2951 91.0352L50.443 90.9835L52.5909 90.9447L53.5298 91.4231C54.0442 91.6816 55.1117 92.0695 55.8834 92.2635L57.2982 92.6384H80.3074H103.304L104.963 92.2376C106.12 91.9532 106.673 91.8756 106.789 91.9661C106.866 92.0437 107.445 92.2247 108.05 92.3669C109.091 92.6255 109.529 92.6384 114.326 92.6384C118.648 92.6384 119.574 92.6125 120.062 92.4315C120.602 92.2505 120.718 92.2505 121.348 92.4315C121.876 92.5867 122.686 92.6384 124.937 92.6384C127.676 92.6384 127.908 92.6255 129.091 92.2893C130.622 91.8756 130.686 91.8756 132.216 92.2893L133.425 92.6255H142.055C152.293 92.6384 151.985 92.6772 154.788 91.2291L156.46 90.3758L157.245 88.8243C157.682 87.9709 158.107 86.9366 158.197 86.5228C158.377 85.6954 158.454 85.6307 159.483 85.398C159.869 85.3075 160.91 84.8808 161.785 84.4412L163.367 83.6525L164.126 82.101C165.296 79.735 165.283 79.7867 165.245 74.3693L165.206 69.6889L164.383 68.0598L163.56 66.4307L162.004 65.642C160.795 65.0214 160.049 64.7499 158.647 64.3879C157.656 64.1422 156.705 63.9354 156.525 63.9354C156.345 63.9354 155.65 63.7932 154.956 63.638C153.785 63.3406 153.656 63.3406 152.435 63.4958C151.727 63.5863 150.763 63.7544 150.3 63.8707C149.631 64.0129 148.653 64.0647 146.042 64.0647C144.062 64.0647 142.506 64.1164 142.313 64.194C142.03 64.2974 141.49 64.2069 139.573 63.7285C137.438 63.1855 137.078 63.1338 136.216 63.1984C135.355 63.2631 133.001 63.7932 130.93 64.4008C130.21 64.6077 130.21 64.6077 128.088 64.0776C125.914 63.5346 125.014 63.4441 123.998 63.6897C123.689 63.7544 123.406 63.7802 123.368 63.7544C123.342 63.7156 123.2 63.1725 123.072 62.5519C122.57 60.173 122.467 59.8497 122.146 59.1903C121.889 58.6732 121.799 58.3241 121.799 57.7293C121.799 56.9536 121.554 55.8416 120.937 53.9152C120.474 52.4412 118.583 48.6012 117.799 47.554C117.066 46.5843 115.754 45.2525 114.738 44.4768C114.378 44.1923 114.082 43.9338 114.082 43.882C114.082 43.8433 114.313 43.3002 114.596 42.6925C114.879 42.0849 115.111 41.503 115.111 41.3867C115.111 41.2703 115.188 41.1798 115.278 41.1798C115.677 41.1798 119.586 39.1241 119.856 38.775C120.024 38.5681 121.168 36.3443 122.403 33.823C124.525 29.4917 124.667 29.1426 125.143 27.2938C125.837 24.6562 125.837 23.9063 125.143 21.1006C124.847 19.9499 124.525 18.7087 124.409 18.3596C124.127 17.4546 122.493 14.1964 122.004 13.5628C121.464 12.8388 120.242 11.8174 119.252 11.2356C118.39 10.7184 118.365 10.6796 117.027 8.1584C116.654 7.44729 116.191 6.68446 115.998 6.46467C115.767 6.20608 114.905 5.6889 113.657 5.0683C111.934 4.20204 111.394 4.0081 109.632 3.5685C108.5 3.29699 107.214 3.02547 106.763 2.97375C106.236 2.90911 105.593 2.71517 104.963 2.40487L103.985 1.93941L99.9984 1.91355C96.5129 1.90063 95.9213 1.92648 95.3039 2.12042ZM102.635 4.20204C103.805 4.48648 105.194 4.90022 105.747 5.12002C106.288 5.32689 107.188 5.58547 107.741 5.6889C110.699 6.23194 113.439 7.08527 114.223 7.7188C114.532 7.97739 115.432 9.49012 115.702 10.2142C115.831 10.5632 116.101 11.0158 116.294 11.2097C116.487 11.3907 116.654 11.6622 116.654 11.8045C116.654 12.0501 117.014 12.3346 118.069 12.9681C118.326 13.1233 118.673 13.3689 118.84 13.5241C119.021 13.6792 119.355 13.9507 119.586 14.1188C120.062 14.4938 120.77 15.4376 121.233 16.3039C121.413 16.64 121.901 18.2562 122.313 19.8982C123.316 23.8158 123.329 24.3588 122.519 27.6946C121.876 30.2804 121.824 30.4356 121.13 31.5604C120.86 32 120.641 32.4267 120.641 32.5172C120.641 32.6077 120.127 33.7325 119.484 35.0255C118.069 37.9216 118.107 37.8828 114.57 38.8008L113.207 39.1628L112.796 40.779C112.577 41.6711 112.152 42.9123 111.87 43.5459C111.574 44.1665 111.368 44.6966 111.394 44.7224C111.419 44.7483 111.96 45.1233 112.577 45.5758C115.239 47.4635 116.77 49.3641 117.94 52.2344C118.262 53.0489 118.467 53.7342 119.098 56.3071C120.294 61.1297 120.834 63.7802 121.014 65.655C121.065 66.2756 121.143 66.8186 121.194 66.8574C121.233 66.8962 121.477 66.8574 121.76 66.7798C122.853 66.4566 124.602 66.1334 125.31 66.1334C125.747 66.1334 126.853 66.3273 127.946 66.5988C128.988 66.8574 129.953 67.0643 130.107 67.0513C130.249 67.0513 131.573 66.741 133.065 66.379C135.573 65.7584 135.83 65.7196 136.911 65.7843C137.592 65.823 138.711 66.0299 139.612 66.2626L141.155 66.6764L145.206 66.6505C148.049 66.6376 149.489 66.5859 150.03 66.4566C150.454 66.3661 151.123 66.2497 151.509 66.198C151.894 66.1592 152.55 66.0558 152.949 65.9782C153.579 65.8618 153.849 65.8877 154.75 66.1075C155.341 66.2626 156.19 66.4437 156.653 66.5212C157.965 66.7281 161.528 67.6461 161.849 67.8529C162.184 68.0857 162.402 68.6934 163.007 71.2534C163.444 73.0764 163.444 73.0893 163.328 75.0416C163.277 76.1277 163.123 77.4336 163.007 77.9378C162.415 80.5237 162.145 81.4934 161.914 81.8683C161.618 82.3467 161.528 82.3725 158.428 83.1483L156.409 83.6396L155.856 85.9022C155.277 88.2683 155.02 88.8372 154.415 89.1346C154.21 89.2251 153.026 89.5612 151.779 89.8715L149.515 90.4404H145.875C142.608 90.4404 142.145 90.4146 141.258 90.1689C140.216 89.8974 139.702 89.9103 138.711 90.2723C138.351 90.4016 137.67 90.4534 136.474 90.4404C134.917 90.4404 134.57 90.3887 132.692 89.9103L130.634 89.3932L128.499 89.9491C125.747 90.6602 124.448 90.699 122.184 90.1301L120.705 89.7681L118.648 90.2723C116.693 90.7637 116.551 90.7766 115.947 90.6214C115.522 90.5051 114.493 90.4404 112.937 90.4404C110.596 90.4404 110.532 90.4275 108.41 89.9103L106.262 89.3802L104.346 89.8457L102.442 90.2982H98.0691C95.5869 90.2982 92.9502 90.3628 91.9599 90.4534C90.7123 90.5697 90.0307 90.5826 89.542 90.4792C89.0789 90.3887 88.6931 90.3887 88.2815 90.4792C87.8442 90.5826 87.2269 90.5697 85.9279 90.4404C84.9633 90.337 83.9215 90.2723 83.5999 90.2853C79.2013 90.4534 78.4811 90.4534 77.7351 90.2594C77.1563 90.1043 76.8477 90.0913 76.4875 90.1948C75.8316 90.3758 71.0085 90.5309 69.0022 90.4275C68.089 90.3887 66.5971 90.4146 65.6967 90.4921C64.6164 90.5697 63.8447 90.5826 63.446 90.4921C63.073 90.4146 62.5714 90.4146 62.1856 90.4792C61.1052 90.6732 58.43 90.3758 56.0635 89.794C53.6069 89.1863 53.2854 89.0699 52.8738 88.6691C52.5909 88.3847 52.4751 88.3717 50.8289 88.3717C49.1311 88.3717 49.0797 88.3847 48.1151 88.8113C47.5749 89.057 46.0701 89.5354 44.7582 89.8715C42.6618 90.4146 42.2117 90.4921 40.9641 90.4921C39.7037 90.5051 39.305 90.4404 37.3243 89.9491L35.0864 89.3802L32.6556 89.9879C30.4048 90.5568 30.1219 90.5956 29.0929 90.5309C28.4113 90.4921 27.1251 90.2465 25.8261 89.9233L23.6783 89.3802L21.5175 89.9491C19.6397 90.4275 19.1767 90.5051 18.0063 90.5051C16.7845 90.5051 16.3601 90.4275 13.6463 89.7422C11.3312 89.1604 10.4695 88.8889 9.89073 88.5527C8.28304 87.596 7.54994 86.2125 6.54674 82.2303C5.91653 79.7091 5.86508 79.4117 5.87794 78.0283C5.87794 76.6837 5.94225 76.3087 6.52102 74.0202C7.24126 71.1887 7.58852 70.3483 8.42452 69.4174C9.42772 68.2796 11.9228 67.3358 16.3986 66.379C18.3021 65.9782 18.9066 66.0428 22.5464 66.9867L23.9355 67.3487L26.212 66.7669C29.2344 66.0041 30.2248 66.0041 32.9257 66.7022C33.9546 66.9738 34.9449 67.2194 35.1378 67.2582C35.3179 67.297 36.4497 67.0772 37.6458 66.7669C40.604 66.017 41.6972 65.9911 44.4367 66.6893C46.1987 67.1289 46.456 67.1548 47.382 67.0772L48.4109 66.9738L48.6295 66.1334C48.7582 65.6679 49.1311 64.5818 49.4527 63.7026L50.0572 62.0994L49.7228 61.1814C49.4012 60.2764 48.5267 56.863 48.2308 55.3762C48.1279 54.8332 48.1279 54.4323 48.2308 53.8247C48.4238 52.7257 49.2469 49.377 49.4655 48.8081C49.5556 48.5624 49.7228 47.9936 49.8514 47.554C49.9671 47.1144 50.2501 46.455 50.4945 46.0929C50.726 45.7309 51.0218 45.2138 51.1504 44.9552C51.279 44.6966 51.7935 44.0372 52.3208 43.5071C52.8353 42.977 53.3626 42.434 53.4783 42.2917C53.697 42.0461 54.4558 41.503 54.996 41.2057C55.3047 41.0376 56.1407 40.7919 57.2339 40.5334C57.9284 40.3653 58.1599 40.0162 58.9059 38.0251L59.3946 36.7063L59.2146 35.2582C59.1245 34.4695 58.9573 33.474 58.8416 33.0473C58.4943 31.6897 58.5843 30.2416 59.1631 27.8497C59.7805 25.3285 60.1792 24.2812 61.9541 20.493C62.237 19.8853 62.7129 18.8639 63.0087 18.2303C63.7804 16.5754 64.0248 16.4202 67.343 15.5927C69.0536 15.1532 70.1983 14.9333 70.7127 14.9333C71.2143 14.9333 72.269 15.1273 73.568 15.4505C75.9602 16.0582 75.883 16.0323 77.748 17.0667C78.5325 17.5063 79.3814 17.9717 79.6643 18.101C80.809 18.6958 81.5421 19.756 81.928 21.398C82.1337 22.2772 82.5196 23.5313 82.6868 23.8158C82.7768 23.9968 82.8283 23.958 83.0212 23.596C83.1369 23.3633 83.5099 22.8978 83.8315 22.5875L84.4102 22.0057L84.1144 20.674C83.69 18.7604 83.78 17.4934 84.5517 14.4162C84.8861 13.0974 85.2848 11.7657 85.4263 11.4424C86.0822 10.0202 89.9149 6.95598 92.7316 5.5984C93.992 4.99072 95.2139 4.61578 98.3907 3.87881C99.5996 3.59436 100.397 3.65901 102.635 4.20204Z" fill="#FB941A"/>
<path d="M95.451 0.217163C94.5544 0.49836 90.4668 2.58727 89.1219 3.44426C87.8561 4.23429 87.0781 4.83686 85.7595 6.02861C84.1904 7.46139 84.1113 7.5819 83.1356 9.5503C82.4104 11.0366 82.1598 11.7463 81.7775 13.2996C81.5269 14.3575 81.25 15.2278 81.1709 15.2278C81.0522 15.2278 79.5359 14.4244 78.1118 13.621C75.9494 12.3891 74.433 11.7463 72.6793 11.2911C71.6508 11.0232 70.5432 10.809 70.2136 10.809C69.8708 10.809 68.6445 11.05 67.4841 11.3446C65.77 11.7731 65.0843 12.0275 63.7658 12.6971C62.8823 13.1523 61.9461 13.6879 61.6956 13.8888C61.1946 14.2905 60.4693 15.7367 57.9377 21.3205C56.4345 24.6145 56.2895 25.0163 55.6961 27.4399C55.1555 29.5958 55.116 30.6938 55.4983 32.3408C55.6434 32.9568 55.828 34.1485 55.8939 34.9788C56.0917 37.2685 56.0653 37.3087 53.9161 38.3933C52.9667 38.862 52.2019 39.3039 52.2019 39.3574C52.2019 39.411 52.0305 39.5449 51.8063 39.6654C51.1866 39.9868 48.9582 42.3033 48.6418 42.9595C48.4835 43.2808 48.2726 43.6424 48.1671 43.7495C47.7847 44.2048 46.2288 47.6193 45.8596 48.8245C45.2794 50.6857 44.5938 53.4843 44.5015 54.261C44.4487 54.7966 44.5542 55.426 45.0684 57.4077C45.4245 58.7736 45.8991 60.4206 46.1365 61.0767C46.4002 61.8534 46.5189 62.389 46.4661 62.6166C46.3606 63.0987 45.7277 64.8127 45.6091 64.9466C45.5695 65.0001 44.4355 64.7725 43.0906 64.4377C41.6797 64.0896 40.3611 63.8352 39.9392 63.8352C39.5173 63.8352 38.1196 64.1164 36.6428 64.4913L34.0716 65.134L31.5135 64.4913C30.0104 64.103 28.6522 63.8352 28.2171 63.8352C27.7952 63.8352 26.3975 64.1164 24.8284 64.5047C22.7582 65.0269 22.0989 65.1474 21.8484 65.0403C21.1496 64.7457 17.6554 63.9423 16.7324 63.8887C15.8621 63.8218 15.4402 63.8887 13.3041 64.4243C10.4296 65.1608 10.034 65.3081 7.44963 66.6204C4.85205 67.946 4.6147 68.187 3.29613 70.9321C1.84571 73.9316 1.83252 73.9851 1.83252 78.8994C1.83252 84.0413 1.88526 84.3225 3.67852 87.9246C4.94435 90.4687 5.27399 90.7901 7.79246 92.0622C9.82306 93.0933 9.9681 93.1468 11.6559 93.6021C12.5525 93.8431 13.1722 93.8833 15.8621 93.9235C18.7234 93.9637 19.1058 93.9503 20.2134 93.6825C20.8727 93.5218 21.5056 93.3343 21.6243 93.2807C21.7561 93.2138 22.4418 93.3209 23.4043 93.5619C24.9075 93.9503 25.1053 93.9637 27.9007 93.9637C30.4059 93.9637 30.9861 93.9235 31.9882 93.6825C32.6211 93.5352 33.2409 93.3477 33.3727 93.2807C33.5178 93.2004 34.1243 93.2941 35.1792 93.5619C36.6955 93.9503 36.8933 93.9637 39.6623 93.9637C43.0247 93.9637 44.04 93.7896 46.0574 92.8522L47.2573 92.3032L49.4593 92.2497L51.6613 92.2095L52.6239 92.705C53.1513 92.9728 54.2457 93.3745 55.0368 93.5753L56.4873 93.9637H80.0765H103.653L105.353 93.5485C106.54 93.254 107.107 93.1736 107.226 93.2674C107.305 93.3477 107.898 93.5352 108.518 93.6825C109.586 93.9503 110.034 93.9637 114.953 93.9637C119.383 93.9637 120.332 93.9369 120.834 93.7494C121.387 93.5619 121.506 93.5619 122.152 93.7494C122.693 93.9101 123.523 93.9637 125.831 93.9637C128.639 93.9637 128.877 93.9503 130.09 93.6021C131.659 93.1736 131.725 93.1736 133.294 93.6021L134.533 93.9503H143.381C153.877 93.9637 153.56 94.0038 156.435 92.5041L158.149 91.6203L158.953 90.0135C159.402 89.1297 159.837 88.0585 159.929 87.63C160.114 86.773 160.193 86.706 161.248 86.465C161.643 86.3713 162.711 85.9294 163.608 85.4741L165.23 84.6573L166.008 83.0504C167.208 80.6 167.194 80.6536 167.155 75.043L167.115 70.1956L166.271 68.5084L165.428 66.8212L163.832 66.0044C162.593 65.3617 161.828 65.0805 160.391 64.7055C159.375 64.4511 158.4 64.2369 158.215 64.2369C158.03 64.2369 157.318 64.0896 156.606 63.9289C155.406 63.6209 155.275 63.6209 154.022 63.7816C153.297 63.8753 152.308 64.0494 151.833 64.1699C151.147 64.3172 150.145 64.3708 147.469 64.3708C145.438 64.3708 143.843 64.4243 143.645 64.5047C143.355 64.6118 142.801 64.5181 140.836 64.0226C138.647 63.4602 138.278 63.4067 137.395 63.4736C136.511 63.5406 134.098 64.0896 131.975 64.7189C131.237 64.9332 131.237 64.9332 129.061 64.3842C126.833 63.8218 125.91 63.728 124.868 63.9825C124.552 64.0494 124.262 64.0762 124.222 64.0494C124.196 64.0092 124.051 63.4468 123.919 62.8041C123.405 60.3403 123.299 60.0055 122.97 59.3226C122.706 58.787 122.614 58.4254 122.614 57.8095C122.614 57.006 122.363 55.8545 121.73 53.8593C121.255 52.3328 119.317 48.3558 118.513 47.2712C117.761 46.2669 116.416 44.8877 115.375 44.0843C115.005 43.7897 114.702 43.5219 114.702 43.4683C114.702 43.4281 114.939 42.8657 115.23 42.2364C115.52 41.607 115.757 41.0045 115.757 40.8839C115.757 40.7634 115.836 40.6697 115.928 40.6697C116.337 40.6697 120.346 38.5406 120.623 38.1791C120.794 37.9648 121.967 35.6617 123.233 33.0505C125.409 28.5647 125.554 28.2032 126.042 26.2884C126.754 23.5567 126.754 22.7801 126.042 19.8743C125.739 18.6826 125.409 17.3971 125.29 17.0356C125 16.0982 123.326 12.7238 122.825 12.0677C122.271 11.3178 121.018 10.26 120.003 9.65742C119.119 9.1218 119.093 9.08163 117.722 6.4705C117.339 5.73402 116.865 4.94398 116.667 4.71635C116.429 4.44854 115.546 3.91293 114.267 3.27018C112.5 2.37302 111.946 2.17216 110.14 1.71689C108.98 1.43569 107.661 1.15449 107.199 1.10093C106.659 1.03397 106 0.833122 105.353 0.511749L104.351 0.0296936L100.264 0.00291443C96.6905 -0.0104752 96.0839 0.016304 95.451 0.217163ZM102.967 2.37302C104.167 2.66761 105.591 3.09611 106.158 3.32375C106.712 3.53799 107.635 3.8058 108.202 3.91293C111.234 4.47532 114.043 5.35909 114.847 6.01522C115.164 6.28303 116.087 7.84972 116.364 8.59958C116.495 8.96112 116.772 9.42979 116.97 9.63064C117.168 9.81811 117.339 10.0993 117.339 10.2466C117.339 10.501 117.708 10.7956 118.79 11.4517C119.053 11.6124 119.409 11.8668 119.581 12.0275C119.765 12.1882 120.108 12.4694 120.346 12.6435C120.834 13.0318 121.559 14.0093 122.033 14.9065C122.218 15.2546 122.719 16.9284 123.141 18.629C124.169 22.6863 124.183 23.2487 123.352 26.7035C122.693 29.3815 122.64 29.5422 121.928 30.7072C121.651 31.1625 121.427 31.6044 121.427 31.6981C121.427 31.7918 120.899 32.9568 120.24 34.2958C118.79 37.2953 118.829 37.2551 115.203 38.2058L113.806 38.5808L113.384 40.2546C113.159 41.1785 112.724 42.464 112.434 43.1201C112.131 43.7629 111.92 44.3119 111.946 44.3387C111.973 44.3655 112.527 44.7538 113.159 45.2224C115.889 47.1774 117.458 49.1458 118.658 52.1185C118.988 52.9621 119.198 53.6718 119.845 56.3365C121.071 61.3311 121.625 64.0762 121.809 66.0178C121.862 66.6605 121.941 67.2229 121.994 67.2631C122.033 67.3033 122.284 67.2631 122.574 67.1828C123.695 66.848 125.488 66.5132 126.213 66.5132C126.662 66.5132 127.796 66.7141 128.916 66.9953C129.984 67.2631 130.973 67.4774 131.132 67.464C131.277 67.464 132.635 67.1426 134.164 66.7677C136.735 66.1249 136.999 66.0848 138.107 66.1517C138.806 66.1919 139.953 66.4061 140.876 66.6472L142.458 67.0756L146.612 67.0489C149.526 67.0355 151.002 66.9819 151.556 66.848C151.991 66.7543 152.677 66.6338 153.073 66.5802C153.468 66.54 154.141 66.4329 154.549 66.3526C155.195 66.232 155.472 66.2588 156.395 66.4865C157.002 66.6472 157.872 66.8346 158.347 66.915C159.692 67.1292 163.344 68.0799 163.674 68.2942C164.017 68.5352 164.241 69.1646 164.861 71.8159C165.309 73.7039 165.309 73.7173 165.19 75.7393C165.137 76.8641 164.979 78.2165 164.861 78.7387C164.254 81.4168 163.977 82.4211 163.74 82.8094C163.437 83.3049 163.344 83.3316 160.166 84.1351L158.096 84.6439L157.529 86.9872C156.936 89.4377 156.672 90.0269 156.053 90.3348C155.842 90.4286 154.628 90.7767 153.349 91.0981L151.029 91.6873H147.297C143.948 91.6873 143.473 91.6605 142.564 91.4061C141.496 91.1249 140.968 91.1383 139.953 91.5132C139.584 91.6471 138.885 91.7007 137.658 91.6873C136.063 91.6873 135.707 91.6337 133.782 91.1383L131.672 90.6027L129.483 91.1784C126.662 91.9149 125.33 91.9551 123.009 91.3659L121.493 90.991L119.383 91.5132C117.379 92.022 117.234 92.0354 116.614 91.8747C116.179 91.7542 115.124 91.6873 113.529 91.6873C111.129 91.6873 111.063 91.6739 108.887 91.1383L106.685 90.5893L104.721 91.0713L102.769 91.54H98.2859C95.7411 91.54 93.038 91.6069 92.0227 91.7007C90.7437 91.8212 90.0449 91.8346 89.5438 91.7274C89.0691 91.6337 88.6736 91.6337 88.2516 91.7274C87.8033 91.8346 87.1704 91.8212 85.8386 91.6873C84.8497 91.5802 83.7817 91.5132 83.452 91.5266C78.9425 91.7007 78.2041 91.7007 77.4394 91.4998C76.846 91.3391 76.5295 91.3257 76.1603 91.4329C75.4879 91.6203 70.5432 91.781 68.4863 91.6739C67.5501 91.6337 66.0205 91.6605 65.0975 91.7408C63.9899 91.8212 63.1988 91.8346 62.79 91.7408C62.4076 91.6605 61.8934 91.6605 61.4978 91.7274C60.3902 91.9283 57.6476 91.6203 55.2214 91.0178C52.703 90.3884 52.3733 90.2679 51.9514 89.8528C51.6613 89.5582 51.5426 89.5448 49.8549 89.5448C48.1143 89.5448 48.0616 89.5582 47.0727 90.0001C46.5189 90.2545 44.9761 90.7499 43.6312 91.0981C41.4819 91.6605 41.0204 91.7408 39.7414 91.7408C38.4492 91.7542 38.0405 91.6873 36.0099 91.1784L33.7156 90.5893L31.2235 91.2186C28.916 91.8078 28.6259 91.848 27.571 91.781C26.8722 91.7408 25.5536 91.4864 24.2218 91.1517L22.0198 90.5893L19.8046 91.1784C17.8795 91.6739 17.4048 91.7542 16.2049 91.7542C14.9523 91.7542 14.5172 91.6739 11.735 90.9642C9.36156 90.3616 8.47812 90.0804 7.88476 89.7323C6.23655 88.7414 5.48496 87.3086 4.45647 83.1843C3.81038 80.5732 3.75763 80.2652 3.77082 78.8325C3.77082 77.4398 3.83675 77.0515 4.4301 74.6814C5.1685 71.7489 5.52452 70.8785 6.38159 69.9144C7.41007 68.7361 9.9681 67.7586 14.5567 66.7677C16.5082 66.3526 17.1279 66.4195 20.8595 67.397L22.2835 67.7719L24.6174 67.1694C27.7161 66.3793 28.7314 66.3793 31.5004 67.1024C32.5552 67.3836 33.5705 67.638 33.7683 67.6782C33.9529 67.7184 35.1132 67.4907 36.3395 67.1694C39.3722 66.3927 40.493 66.3659 43.3016 67.089C45.108 67.5443 45.3717 67.5711 46.3211 67.4907L47.3759 67.3836L47.6001 66.5132C47.732 66.0312 48.1143 64.9064 48.444 63.9958L49.0637 62.3354L48.7209 61.3847C48.3912 60.4474 47.4946 56.9123 47.1913 55.3724C47.0859 54.81 47.0859 54.3949 47.1913 53.7655C47.3891 52.6274 48.233 49.1592 48.4572 48.57C48.5495 48.3156 48.7209 47.7265 48.8527 47.2712C48.9714 46.8159 49.2615 46.133 49.512 45.7581C49.7494 45.3831 50.0526 44.8475 50.1845 44.5797C50.3164 44.3119 50.8438 43.629 51.3844 43.08C51.9118 42.531 52.4524 41.9686 52.5711 41.8213C52.7953 41.5668 53.5732 41.0045 54.127 40.6965C54.4435 40.5224 55.3006 40.268 56.4213 40.0002C57.1334 39.8261 57.3707 39.4646 58.1355 37.4024L58.6365 36.0366L58.4519 34.5369C58.3596 33.7201 58.1882 32.689 58.0696 32.2471C57.7135 30.8411 57.8058 29.3414 58.3992 26.8641C59.0321 24.253 59.4409 23.1684 61.2605 19.245C61.5506 18.6156 62.0384 17.5578 62.3417 16.9016C63.1329 15.1877 63.3834 15.027 66.7853 14.17C68.539 13.7147 69.7125 13.4871 70.24 13.4871C70.7542 13.4871 71.8354 13.6879 73.1672 14.0227C75.6197 14.6521 75.5406 14.6253 77.4525 15.6965C78.2569 16.1518 79.1271 16.6338 79.4172 16.7677C80.5907 17.3837 81.3423 18.4817 81.7379 20.1823C81.9489 21.0929 82.3444 22.3917 82.5158 22.6863C82.6081 22.8738 82.6609 22.8336 82.8587 22.4587C82.9773 22.2177 83.3597 21.7356 83.6894 21.4142L84.2827 20.8117L83.9795 19.4324C83.5443 17.4507 83.6366 16.1384 84.4278 12.9515C84.7706 11.5856 85.1794 10.2064 85.3244 9.87167C85.9969 8.39872 89.9262 5.22519 92.8139 3.81919C94.1061 3.18984 95.3587 2.80151 98.6156 2.03826C99.855 1.74367 100.673 1.81062 102.967 2.37302Z" fill="#F84F0C"/>
<path d="M95.6941 0.221848C94.7776 0.50914 90.5994 2.64332 89.2246 3.51888C87.9307 4.32604 87.1355 4.94167 85.7877 6.15925C84.1838 7.62308 84.103 7.7462 83.1056 9.75726C82.3643 11.2758 82.1082 12.0009 81.7173 13.5878C81.4613 14.6686 81.1782 15.5578 81.0974 15.5578C80.976 15.5578 79.4261 14.737 77.9704 13.9162C75.76 12.6575 74.2101 12.0009 72.4175 11.5357C71.3662 11.2621 70.234 11.0432 69.8971 11.0432C69.5467 11.0432 68.2932 11.2895 67.1071 11.5905C65.355 12.0282 64.6541 12.2882 63.3063 12.9722C62.4033 13.4373 61.4464 13.9846 61.1903 14.1898C60.6781 14.6002 59.9368 16.0777 57.349 21.7825C55.8125 25.148 55.6643 25.5584 55.0578 28.0346C54.5052 30.2372 54.4647 31.359 54.8556 33.0417C55.0039 33.671 55.1926 34.8886 55.26 35.7368C55.4621 38.0762 55.4352 38.1172 53.2382 39.2253C52.2678 39.7042 51.4861 40.1556 51.4861 40.2104C51.4861 40.2651 51.3109 40.4019 51.0818 40.525C50.4483 40.8533 48.1705 43.2201 47.847 43.8904C47.6853 44.2188 47.4696 44.5882 47.3618 44.6976C46.971 45.1627 45.3806 48.6513 45.0032 49.8826C44.4101 51.7842 43.7093 54.6434 43.6149 55.4369C43.561 55.9841 43.6688 56.6271 44.1945 58.6519C44.5584 60.0473 45.0436 61.73 45.2862 62.4004C45.5558 63.1938 45.6771 63.7411 45.6232 63.9736C45.5153 64.4661 44.8684 66.2172 44.7471 66.3541C44.7066 66.4088 43.5475 66.1762 42.1728 65.8342C40.7306 65.4785 39.3828 65.2186 38.9515 65.2186C38.5202 65.2186 37.0916 65.5059 35.582 65.8889L32.9538 66.5456L30.3391 65.8889C28.8026 65.4922 27.4143 65.2186 26.9696 65.2186C26.5383 65.2186 25.1096 65.5059 23.5057 65.9026C21.3896 66.4361 20.7157 66.5593 20.4597 66.4498C19.7453 66.1488 16.1736 65.328 15.2302 65.2733C14.3406 65.2049 13.9093 65.2733 11.7259 65.8205C8.78768 66.5729 8.38334 66.7234 5.74164 68.0641C3.08647 69.4185 2.84387 69.6648 1.49606 72.4693C0.013478 75.5338 0 75.5885 0 80.6093C0 85.8626 0.0539121 86.1499 1.88693 89.83C3.18082 92.4294 3.51777 92.7577 6.09207 94.0573C8.16769 95.1108 8.31595 95.1655 10.0411 95.6306C10.9576 95.8769 11.5911 95.9179 14.3406 95.959C17.2654 96 17.6562 95.9863 18.7884 95.7127C19.4623 95.5485 20.1092 95.357 20.2305 95.3023C20.3653 95.2339 21.0662 95.3433 22.0501 95.5896C23.5866 95.9863 23.7887 96 26.6461 96C29.2069 96 29.7999 95.959 30.8243 95.7127C31.4712 95.5622 32.1047 95.3707 32.2395 95.3023C32.3877 95.2202 33.0077 95.316 34.086 95.5896C35.6359 95.9863 35.8381 96 38.6685 96C42.1054 96 43.1432 95.8222 45.2053 94.8645L46.4318 94.3036L48.6827 94.2489L50.9335 94.2078L51.9174 94.714C52.4565 94.9876 53.5752 95.3981 54.3839 95.6033L55.8665 96H79.9787H104.077L105.816 95.5759C107.029 95.2749 107.609 95.1928 107.73 95.2886C107.811 95.3707 108.417 95.5622 109.051 95.7127C110.143 95.9863 110.601 96 115.628 96C120.157 96 121.127 95.9726 121.639 95.7811C122.205 95.5896 122.327 95.5896 122.987 95.7811C123.54 95.9453 124.389 96 126.747 96C129.618 96 129.861 95.9863 131.101 95.6306C132.705 95.1928 132.772 95.1928 134.376 95.6306L135.643 95.9863H144.687C155.415 96 155.092 96.041 158.03 94.5088L159.782 93.6059L160.604 91.9642C161.063 91.0613 161.507 89.9668 161.602 89.5291C161.79 88.6535 161.871 88.5851 162.949 88.3388C163.354 88.2431 164.446 87.7916 165.362 87.3265L167.02 86.492L167.815 84.8503C169.042 82.3467 169.028 82.4014 168.988 76.6693L168.947 71.7169L168.085 69.9931L167.222 68.2693L165.591 67.4348C164.324 66.7782 163.542 66.4909 162.073 66.1078C161.036 65.8479 160.038 65.629 159.85 65.629C159.661 65.629 158.933 65.4785 158.205 65.3143C156.979 64.9997 156.844 64.9997 155.564 65.1638C154.822 65.2596 153.811 65.4375 153.326 65.5606C152.625 65.7111 151.601 65.7658 148.865 65.7658C146.789 65.7658 145.158 65.8205 144.956 65.9026C144.66 66.012 144.094 65.9163 142.085 65.4101C139.848 64.8355 139.471 64.7808 138.568 64.8492C137.665 64.9176 135.198 65.4785 133.028 66.1215C132.273 66.3404 132.273 66.3404 130.05 65.7795C127.772 65.2049 126.828 65.1091 125.764 65.369C125.44 65.4375 125.144 65.4648 125.103 65.4375C125.076 65.3964 124.928 64.8218 124.793 64.1652C124.268 61.6479 124.16 61.3059 123.823 60.6082C123.553 60.061 123.459 59.6916 123.459 59.0623C123.459 58.2414 123.203 57.0649 122.556 55.0265C122.071 53.4669 120.089 49.4037 119.267 48.2956C118.499 47.2696 117.124 45.8605 116.059 45.0396C115.682 44.7386 115.372 44.465 115.372 44.4103C115.372 44.3693 115.615 43.7947 115.911 43.1517C116.208 42.5087 116.45 41.8931 116.45 41.7699C116.45 41.6468 116.531 41.5511 116.625 41.5511C117.043 41.5511 121.141 39.3758 121.424 39.0065C121.599 38.7876 122.798 36.4345 124.092 33.7668C126.316 29.1838 126.464 28.8144 126.963 26.8581C127.691 24.0672 127.691 23.2737 126.963 20.305C126.653 19.0874 126.316 17.7741 126.195 17.4047C125.898 16.4471 124.187 12.9996 123.674 12.3292C123.108 11.5631 121.828 10.4823 120.79 9.8667C119.887 9.31947 119.86 9.27843 118.458 6.61071C118.068 5.85827 117.582 5.05112 117.38 4.81854C117.138 4.54493 116.235 3.9977 114.927 3.34103C113.121 2.42443 112.555 2.21922 110.709 1.75408C109.523 1.46679 108.175 1.17949 107.703 1.12477C107.15 1.05637 106.476 0.851158 105.816 0.52282L104.792 0.0303192L100.614 0.00296021C96.961 -0.0107193 96.341 0.0166397 95.6941 0.221848ZM103.377 2.42443C104.603 2.7254 106.059 3.16319 106.638 3.39576C107.204 3.61465 108.148 3.88826 108.727 3.9977C111.827 4.57229 114.698 5.47521 115.52 6.14556C115.844 6.41917 116.787 8.01981 117.07 8.78593C117.205 9.1553 117.488 9.63412 117.69 9.83934C117.892 10.0309 118.068 10.3182 118.068 10.4686C118.068 10.7286 118.445 11.0296 119.55 11.6999C119.82 11.8641 120.184 12.124 120.359 12.2882C120.548 12.4523 120.898 12.7396 121.141 12.9175C121.639 13.3142 122.381 14.3129 122.866 15.2295C123.054 15.5852 123.567 17.2953 123.998 19.0327C125.049 23.178 125.063 23.7525 124.214 27.2822C123.54 30.0183 123.486 30.1824 122.758 31.3727C122.475 31.8378 122.246 32.2893 122.246 32.385C122.246 32.4808 121.707 33.671 121.033 35.0391C119.55 38.1035 119.591 38.0625 115.884 39.0338L114.455 39.4169L114.024 41.127C113.795 42.0709 113.35 43.3843 113.054 44.0546C112.744 44.7113 112.528 45.2722 112.555 45.2996C112.582 45.3269 113.148 45.7237 113.795 46.2025C116.585 48.1998 118.189 50.2109 119.415 53.248C119.752 54.1099 119.968 54.835 120.628 57.5574C121.882 62.6603 122.448 65.4648 122.637 67.4485C122.691 68.1052 122.771 68.6798 122.825 68.7208C122.866 68.7618 123.122 68.7208 123.418 68.6387C124.564 68.2967 126.397 67.9547 127.138 67.9547C127.597 67.9547 128.756 68.1599 129.901 68.4472C130.993 68.7208 132.004 68.9397 132.166 68.926C132.314 68.926 133.702 68.5977 135.266 68.2146C137.894 67.558 138.163 67.5169 139.296 67.5853C140.01 67.6264 141.182 67.8452 142.126 68.0915L143.743 68.5293L147.989 68.5019C150.967 68.4882 152.477 68.4335 153.043 68.2967C153.488 68.2009 154.189 68.0778 154.593 68.0231C154.997 67.9821 155.685 67.8726 156.103 67.7905C156.763 67.6674 157.046 67.6948 157.99 67.9273C158.61 68.0915 159.499 68.283 159.984 68.3651C161.359 68.584 165.092 69.5553 165.429 69.7742C165.78 70.0205 166.009 70.6635 166.642 73.3722C167.101 75.3012 167.101 75.3149 166.979 77.3807C166.925 78.5298 166.764 79.9116 166.642 80.4451C166.022 83.1812 165.739 84.2073 165.497 84.604C165.187 85.1102 165.092 85.1376 161.844 85.9584L159.728 86.4783L159.149 88.8724C158.542 91.3759 158.273 91.9779 157.639 92.2925C157.423 92.3883 156.183 92.744 154.876 93.0723L152.504 93.6743H148.69C145.266 93.6743 144.781 93.6469 143.851 93.387C142.759 93.0997 142.22 93.1134 141.182 93.4964C140.805 93.6332 140.091 93.688 138.837 93.6743C137.206 93.6743 136.843 93.6196 134.875 93.1134L132.718 92.5662L130.481 93.1544C127.597 93.9069 126.235 93.9479 123.863 93.346L122.313 92.9629L120.157 93.4964C118.108 94.0163 117.96 94.03 117.326 93.8658C116.882 93.7427 115.803 93.6743 114.172 93.6743C111.719 93.6743 111.652 93.6606 109.428 93.1134L107.177 92.5525L105.169 93.045L103.174 93.5238H98.5918C95.9906 93.5238 93.2276 93.5922 92.1898 93.688C90.8824 93.8111 90.1681 93.8248 89.6559 93.7153C89.1707 93.6196 88.7663 93.6196 88.3351 93.7153C87.8768 93.8248 87.2299 93.8111 85.8686 93.6743C84.8577 93.5648 83.766 93.4964 83.429 93.5101C78.8196 93.688 78.0648 93.688 77.2831 93.4828C76.6766 93.3186 76.3531 93.3049 75.9757 93.4144C75.2883 93.6059 70.234 93.7701 68.1315 93.6606C67.1745 93.6196 65.6111 93.6469 64.6676 93.729C63.5355 93.8111 62.7268 93.8248 62.309 93.729C61.9181 93.6469 61.3925 93.6469 60.9881 93.7153C59.856 93.9205 57.0525 93.6059 54.5726 92.9903C51.9983 92.3473 51.6613 92.2241 51.23 91.8C50.9335 91.4991 50.8122 91.4854 49.087 91.4854C47.3079 91.4854 47.254 91.4991 46.2431 91.9505C45.6771 92.2105 44.1001 92.7166 42.7254 93.0723C40.5285 93.6469 40.0567 93.729 38.7494 93.729C37.4285 93.7427 37.0107 93.6743 34.9351 93.1544L32.5899 92.5525L30.0425 93.1955C27.6839 93.7974 27.3874 93.8385 26.3091 93.7701C25.5948 93.729 24.247 93.4691 22.8857 93.1271L20.6349 92.5525L18.3706 93.1544C16.4028 93.6606 15.9176 93.7427 14.6911 93.7427C13.4106 93.7427 12.9659 93.6606 10.122 92.9355C7.69596 92.3199 6.79293 92.0326 6.18642 91.6769C4.50166 90.6646 3.73342 89.2007 2.68213 84.9871C2.02171 82.3194 1.96779 82.0047 1.98127 80.5409C1.98127 79.1181 2.04866 78.7214 2.65517 76.2999C3.40994 73.3038 3.77385 72.4146 4.64992 71.4296C5.70121 70.2257 8.31595 69.227 13.0063 68.2146C15.0011 67.7905 15.6345 67.8589 19.4488 68.8576L20.9044 69.2407L23.29 68.625C26.4574 67.8179 27.4952 67.8179 30.3256 68.5566C31.4038 68.8439 32.4416 69.1039 32.6438 69.1449C32.8325 69.1859 34.0186 68.9534 35.272 68.625C38.372 67.8316 39.5176 67.8042 42.3884 68.543C44.2349 69.0081 44.5045 69.0355 45.4749 68.9534L46.5531 68.8439L46.7823 67.9547C46.917 67.4622 47.3079 66.313 47.6449 65.3827L48.2783 63.6863L47.9279 62.715C47.591 61.7574 46.6744 58.1457 46.3644 56.5724C46.2566 55.9978 46.2566 55.5737 46.3644 54.9307C46.5666 53.7679 47.4292 50.2246 47.6583 49.6226C47.7527 49.3627 47.9279 48.7608 48.0627 48.2956C48.184 47.8305 48.4805 47.1328 48.7366 46.7497C48.9792 46.3666 49.2892 45.8194 49.424 45.5458C49.5587 45.2722 50.0979 44.5745 50.6505 44.0136C51.1896 43.4527 51.7422 42.8781 51.8635 42.7276C52.0926 42.4677 52.8878 41.8931 53.4539 41.5784C53.7774 41.4006 54.6534 41.1406 55.7991 40.867C56.5269 40.6892 56.7695 40.3198 57.5512 38.213L58.0634 36.8176L57.8747 35.2853C57.7803 34.4508 57.6051 33.3974 57.4838 32.9459C57.1199 31.5095 57.2143 29.9772 57.8208 27.4463C58.4677 24.7786 58.8855 23.6705 60.7455 19.662C61.042 19.019 61.5407 17.9383 61.8507 17.2679C62.6594 15.5168 62.9155 15.3526 66.3928 14.4771C68.1854 14.0119 69.3849 13.7794 69.9241 13.7794C70.4497 13.7794 71.5549 13.9846 72.9162 14.3266C75.4231 14.9696 75.3422 14.9422 77.2965 16.0367C78.1187 16.5018 79.0083 16.9943 79.3048 17.1311C80.5043 17.7604 81.2726 18.8822 81.6769 20.6197C81.8926 21.55 82.2969 22.877 82.4721 23.178C82.5665 23.3695 82.6204 23.3284 82.8225 22.9454C82.9438 22.6991 83.3347 22.2066 83.6717 21.8783L84.2782 21.2627L83.9682 19.8536C83.5234 17.8288 83.6177 16.4881 84.4264 13.2321C84.7769 11.8367 85.1947 10.4276 85.3429 10.0856C86.0303 8.58072 90.0468 5.33841 92.9985 3.90194C94.3193 3.25895 95.5997 2.86221 98.9288 2.08241C100.196 1.78144 101.031 1.84985 103.377 2.42443Z" fill="#FBEC18"/>
<path d="M98.8405 10.4599C96.1138 11.365 91.2136 15.1015 90.6606 16.6918C90.5577 16.9892 90.4805 17.7391 90.4805 18.489C90.4805 19.588 90.5319 19.9242 90.8406 20.7775C91.1879 21.7343 91.2007 21.8118 91.0593 22.7169C90.9821 23.2341 90.7377 24.152 90.5319 24.7597C90.3133 25.3674 90.0432 26.1949 89.9274 26.6086C89.786 27.1516 89.6574 27.3973 89.4644 27.4749C88.6027 27.7981 87.3423 30.0349 87.2008 31.4571C87.1622 31.9355 86.995 32.5561 86.8535 32.8405C86.2105 34.0947 85.979 35.1937 85.9918 37.0425C86.0047 38.5553 86.0433 38.9302 86.3391 39.8741C86.5835 40.6369 86.6864 41.2446 86.6864 41.904C86.6864 43.3262 86.7507 43.2874 83.5096 43.6882C79.9984 44.1278 78.6608 44.4898 77.0788 45.4337C74.1978 47.1145 71.8185 50.308 68.9889 56.3072C67.4456 59.5783 66.7896 60.367 66.3909 59.4749C66.2623 59.2034 66.288 58.9577 66.4938 58.2078C66.7896 57.1476 66.8153 56.2425 66.6096 54.1221C66.4938 52.9714 66.4938 52.3767 66.6224 51.5492L66.7768 50.4761L66.3652 49.6874C66.1465 49.2478 65.7864 48.4591 65.5806 47.9161C65.3749 47.3731 65.1305 46.8042 65.0533 46.649C64.9504 46.4421 64.9762 46.2094 65.1819 45.6147C67.5999 38.6846 67.87 37.9735 68.2044 37.8054C68.8475 37.4692 71.9599 35.31 72.1529 35.0773C72.3586 34.8058 73.0918 33.2801 74.738 29.6082C75.2525 28.4704 75.7669 27.3973 75.9084 27.2163C76.0499 27.0094 76.1785 26.5698 76.2171 26.0526C76.2814 25.3286 76.2428 25.1347 75.9856 24.6433C75.6641 24.0486 75.5997 23.9969 72.6673 22.3419C71.214 21.5274 71.1754 21.5145 70.3908 21.5662C69.0918 21.6567 68.9889 21.7989 67.1626 25.7811C66.288 27.6688 65.4906 29.4789 65.3877 29.7892C65.1434 30.5779 65.1562 31.664 65.4649 32.931C65.5935 33.5258 65.7736 34.6765 65.8507 35.491C65.9279 36.3056 66.0437 37.1718 66.108 37.4175C66.2109 37.7924 66.0694 38.2579 64.989 41.167C64.3074 42.99 63.6128 44.6579 63.4456 44.8906C63.0598 45.3949 62.6354 46.4939 62.6354 46.9722C62.6354 47.4248 62.2752 48.6789 62.1466 48.6789C62.0952 48.6789 61.8894 48.4462 61.6836 48.1617C61.4778 47.8902 61.092 47.4506 60.8348 47.192C60.3975 46.7654 60.3074 46.7266 59.8573 46.8171C59.4457 46.8817 59.1113 47.1533 58.0309 48.2005C57.285 48.9375 56.6033 49.752 56.449 50.0623C56.3075 50.3727 56.1274 50.6442 56.0631 50.6959C55.8445 50.8252 55.4715 51.7044 55.3815 52.2733C55.33 52.5836 55.1757 53.0749 55.0342 53.3722C54.8027 53.7989 54.777 54.0575 54.8284 54.7428C54.8927 55.6737 55.6387 57.988 56.1146 58.7508C56.4104 59.2292 57.2078 61.0781 57.3236 61.5565C57.375 61.7892 55.9088 66.0042 54.4683 69.7795L54.2754 70.2708H54.7127C54.9442 70.2708 55.2143 70.3613 55.3043 70.4777C55.3943 70.5811 55.6258 70.6587 55.8059 70.6329C56.0889 70.5941 56.1918 70.4001 56.8734 68.5254C57.285 67.3876 57.7737 66.0171 57.9666 65.487C58.1467 64.9569 58.3525 64.4656 58.4039 64.388C58.4682 64.3234 58.5197 65.3577 58.5197 66.7799C58.5197 68.7064 58.5711 69.5209 58.7383 70.232C58.8541 70.7492 58.9956 71.1759 59.0599 71.1759C59.2013 71.1759 59.1885 70.9819 58.9698 69.9476C58.6612 68.4478 58.7383 66.0171 59.1628 64.4527L59.3171 63.8708L60.2431 64.8405C60.8476 65.487 61.3878 66.2369 61.8379 67.0514C62.1981 67.7367 62.5067 68.3444 62.5067 68.3961C62.5067 68.4478 61.9794 68.4607 61.3235 68.409C60.3975 68.3444 60.1788 68.3702 60.2946 68.4866C60.3846 68.5771 61.0148 68.6676 61.8379 68.7193C62.9055 68.771 63.3942 68.7322 64.0501 68.5642C64.5131 68.4349 64.9247 68.3314 64.9633 68.3314C65.1819 68.3314 65.3877 69.2365 65.362 70.0381C65.3363 70.7234 65.362 70.9173 65.5035 70.9173C65.6449 70.9173 65.735 70.6199 65.8379 69.8442C66.4166 65.7844 67.1755 62.2417 67.8828 60.186C68.4488 58.5698 69.6706 55.8805 70.5838 54.2385C72.3329 51.0838 72.5902 50.7088 73.9663 49.3642C74.9567 48.3945 76.9373 46.83 77.8634 46.287C78.9952 45.6276 80.873 45.0716 82.7636 44.8648L83.5353 44.7743L83.0723 45.2656C82.5192 45.8733 81.053 47.6575 80.2042 48.7823C79.8569 49.2349 79.291 49.9331 78.9437 50.3339C77.992 51.4199 77.1303 52.7904 76.1656 54.7557C75.7026 55.7124 75.1367 56.7856 74.9052 57.1476C73.6062 59.2163 72.1914 62.6684 71.4455 65.6163C71.2783 66.2886 70.9825 67.2842 70.8024 67.8143C70.4809 68.7322 70.0564 70.5294 70.1207 70.607C70.1465 70.6199 71.4712 70.6846 73.0789 70.7492C75.111 70.8268 76.8859 70.8139 78.9309 70.7104C80.5386 70.6199 82.4549 70.5423 83.1752 70.5423C84.4742 70.5294 84.4742 70.5294 84.8086 70.9173C85.0658 71.2405 85.1816 71.2922 85.3616 71.1759C85.4902 71.0983 86.5449 70.9949 87.7153 70.9432L89.8246 70.8527L90.1075 69.4304C90.4805 67.504 90.712 66.6506 91.3036 65.0086C92.5512 61.5048 92.9885 60.7032 95.355 57.5355C97.2199 55.0401 99.2134 53.1137 101.438 51.6268L102.159 51.1484L102.879 51.6397C103.278 51.9112 104.409 52.5836 105.387 53.1395C107.149 54.148 107.175 54.1609 106.866 54.3549C104.422 55.984 103.252 57.9234 101.927 62.5908C101.374 64.5173 100.448 68.4866 100.448 68.8874C100.448 69.2106 100.821 69.146 100.898 68.8098C100.937 68.6547 101.143 67.6203 101.361 66.5213C102.519 60.6256 103.831 57.3545 105.773 55.5573C106.725 54.6781 108.384 53.9799 109.528 53.9799C110.056 53.9799 110.12 54.0187 110.596 54.6522C111.625 56.0486 112.036 57.1993 112.859 60.8842C113.773 65.0474 113.863 65.7197 113.786 68.5642L113.734 71.0466H114.03C114.3 71.0466 114.326 70.969 114.416 70.0381C114.66 67.7108 114.454 64.9828 113.824 62.2159C113.13 59.1646 113.001 58.6215 112.692 57.6648C111.805 54.7945 110.249 52.8163 107.085 50.5537C106.107 49.8555 105.464 49.3124 105.464 49.1832C105.464 48.8341 104.088 47.6446 103.676 47.6446C103.188 47.6446 102.017 46.4034 101.361 45.188C100.602 43.7787 100.667 43.2745 101.786 42.2401C102.313 41.7488 102.442 41.6971 103.046 41.6842C104.127 41.6842 104.538 41.4644 105.297 40.5335C106.467 39.0854 107.2 37.327 106.943 36.5383C106.905 36.3832 106.609 36.0858 106.287 35.8789C105.606 35.4005 105.567 35.1031 106.094 34.2369C106.699 33.2543 106.969 33.1508 109.361 33.0345C110.995 32.944 111.612 32.8664 112.191 32.6466C113.091 32.3104 113.258 32.0648 114.429 29.4789C115.265 27.63 115.329 27.5007 116.088 26.0785C116.474 25.3674 116.525 25.1347 116.525 24.3201C116.525 23.2082 116.268 22.1351 115.74 21.049C115.252 20.0405 114.043 18.8898 112.358 17.8425L111.136 17.0797L110.403 15.3213C109.258 12.6062 108.77 12.27 105.721 12.1278L104.114 12.0631L102.377 11.2098C100.5 10.2789 99.7922 10.1367 98.8405 10.4599ZM101.554 11.4038C102.287 11.7528 102.892 12.0631 102.892 12.1019C102.892 12.1537 102.39 12.2442 101.773 12.3347C101.156 12.4122 100.615 12.5157 100.564 12.5674C100.5 12.632 101.927 12.6838 103.702 12.6838C108.577 12.7096 108.692 12.7613 109.901 15.6316C110.712 17.5452 110.66 17.5064 112.461 18.6054C114.853 20.0922 116.011 21.967 116.011 24.346C116.011 25.251 115.972 25.3545 114.814 27.2809C114.377 27.992 113.786 29.1557 113.477 29.8668C112.667 31.7157 112.679 31.7027 112.126 31.9355C111.522 32.1682 107.2 32.388 107.278 32.1682C107.303 32.1036 107.561 31.6898 107.844 31.2502C108.216 30.6813 108.422 30.4745 108.577 30.5262C108.757 30.5779 108.77 30.5262 108.68 30.1642C108.525 29.5048 108.049 28.3153 107.676 27.63C107.303 26.9577 105.4 24.9149 104.577 24.3072C104.294 24.0874 104.049 23.8935 104.049 23.8547C104.049 23.8159 104.435 23.6866 104.911 23.5573C105.374 23.4409 106.274 23.1306 106.892 22.872C108.191 22.3549 108.139 22.3549 109.361 23.2987C109.76 23.609 110.094 23.8159 110.094 23.7383C110.094 23.5444 109.078 22.7169 108.487 22.4324C107.998 22.1997 107.921 22.1868 107.573 22.3549C107.11 22.5876 104.114 23.4668 103.792 23.4668C103.664 23.4668 103.162 23.2211 102.686 22.9238C101.631 22.2902 99.7279 21.424 98.416 20.9973C97.6315 20.7516 97.4386 20.6223 97.2199 20.2474C96.9755 19.8337 96.0109 17.6227 95.8566 17.1185C95.7666 16.8082 96.4096 16.1229 97.1556 15.748C97.5157 15.567 97.7472 15.386 97.6572 15.3601C97.2842 15.2308 95.9723 16.1229 95.7408 16.6789C95.5865 17.0539 95.6122 17.1831 95.9981 18.2434C96.2296 18.8769 96.5511 19.6397 96.7055 19.9371L96.9755 20.4801L95.6508 20.4025C93.9788 20.312 93.0914 20.5318 92.294 21.2688L91.7538 21.773L91.3937 20.7387C91.0978 19.9112 91.0207 19.4716 91.0207 18.5149C91.0078 17.8555 91.0721 17.1185 91.1622 16.8599C91.548 15.7351 95.5736 12.5157 97.9659 11.4167C99.6507 10.6409 99.8951 10.6409 101.554 11.4038ZM96.0495 20.7516C98.2231 21.0361 101.721 22.5488 103.728 24.0745C105.078 25.0959 106.506 26.4922 107.123 27.3973C107.612 28.0955 108.281 29.5953 108.294 29.9702C108.294 30.0995 108.101 30.4486 107.856 30.746C107.226 31.5347 105.786 33.7844 105.336 34.6894C105.13 35.1161 104.898 35.504 104.834 35.5427C104.77 35.5815 104.654 35.4393 104.577 35.2324C104.178 34.0688 101.387 30.8753 99.6765 29.6082C98.0173 28.3928 96.2167 27.6817 93.5544 27.2163C91.4965 26.8543 90.802 26.8672 90.3647 27.2809C90.1847 27.449 90.0303 27.5654 90.0303 27.5137C90.0303 27.1646 90.5577 25.6001 91.1879 24.1003C91.6123 23.1048 91.9596 22.2256 91.9596 22.1609C91.9596 21.9153 92.384 21.3981 92.7827 21.1395C93.5801 20.6482 94.4676 20.5448 96.0495 20.7516ZM69.9664 24.8761C69.9664 25.1605 68.6931 28.367 68.0886 29.6082C67.78 30.2547 67.6642 30.384 67.3941 30.384C67.1626 30.384 67.0597 30.3064 67.034 30.0995C66.9954 29.828 68.9504 25.7294 69.4648 24.9924C69.7735 24.5658 69.9664 24.527 69.9664 24.8761ZM72.0886 25.807C71.9728 26.1173 71.7799 26.6086 71.6513 26.893C71.5227 27.1775 71.2011 27.9015 70.9567 28.5092C70.3394 29.9961 68.9889 32.9052 68.8346 33.0603C68.6674 33.2284 68.2944 33.0345 68.2944 32.7759C68.2944 32.5431 70.0436 28.91 71.1239 26.893C72.0757 25.1347 72.4873 24.6692 72.0886 25.807ZM74.3393 26.1044C74.3393 26.2724 73.6062 28.186 73.1818 29.1557C72.9117 29.7634 72.4744 30.746 72.2172 31.3537C71.9599 31.9613 71.677 32.5302 71.5998 32.6207C71.4198 32.8535 70.9439 32.7629 70.8924 32.4785C70.8024 32.026 73.902 26.0526 74.2236 26.0526C74.2879 26.0526 74.3393 26.0785 74.3393 26.1044ZM93.5801 27.5395C97.1299 28.1601 99.3935 29.4013 101.863 32.1036C103.471 33.8749 103.406 33.7326 103.406 35.685C103.406 36.6029 103.471 37.4563 103.535 37.5597C103.664 37.7795 103.754 37.689 104.397 36.6935C104.667 36.2797 104.873 36.1116 105.168 36.0599C106.069 35.8918 106.75 36.2926 106.75 37.0038C106.75 37.7924 105.438 40.0809 104.5 40.8955C104.088 41.2704 103.959 41.3092 103.213 41.3092H102.39L102.828 40.3654C103.072 39.8611 103.303 39.2276 103.342 38.9819C103.406 38.6328 103.291 38.788 102.853 39.6413C101.992 41.348 101.799 41.6195 100.898 42.3177C99.3163 43.546 96.8469 44.5286 94.7248 44.7743C94.1717 44.8389 93.22 44.8131 92.2425 44.7096C90.9435 44.5803 90.4934 44.4769 89.7602 44.1407C88.7442 43.6753 87.741 42.7056 87.3423 41.8005C86.9693 40.9731 86.4548 39.1759 86.2876 38.0898C85.9147 35.7755 86.8793 32.7112 88.5899 30.733C89.4516 29.7375 89.7602 29.285 89.9146 28.7678C89.9918 28.4834 90.2618 28.1343 90.622 27.824C91.3036 27.268 91.7281 27.2163 93.5801 27.5395ZM89.7474 28.0825C89.7988 28.4446 89.3615 29.2979 88.8214 29.9056C88.5899 30.1642 88.1783 30.6684 87.9082 31.0304L87.4195 31.6769L87.4838 31.1339C87.5738 30.4874 88.3712 28.8454 88.9114 28.186C89.323 27.6817 89.6831 27.63 89.7474 28.0825ZM88.0239 46.4163C88.0497 47.011 88.1526 47.6575 88.2683 47.929L88.4741 48.4203L88.0625 48.2135C87.831 48.0971 87.3937 47.7351 87.0851 47.3989C86.7121 46.9981 86.5835 46.9076 86.6864 47.1274C86.995 47.7609 87.8825 48.5496 88.6156 48.8211C89.7088 49.2478 91.548 49.2995 93.2457 48.9375C95.4579 48.485 97.4514 47.7351 98.2746 47.0369C98.4803 46.8559 98.6733 46.7266 98.699 46.7524C98.7118 46.7783 98.8276 47.0757 98.9562 47.4248C99.0848 47.7609 99.445 48.3815 99.7665 48.8082C100.075 49.2349 100.307 49.6357 100.268 49.7003C100.217 49.765 99.3678 50.4502 98.3646 51.2131C95.7408 53.2171 94.4161 54.3419 92.6541 56.0745C90.9178 57.7811 90.7763 57.8587 89.2072 57.8587C87.8825 57.8587 83.2781 57.1476 82.1205 56.7597C81.2459 56.4623 79.0852 55.6478 78.9823 55.5702C78.7637 55.4151 80.5128 52.0535 81.9276 49.9072C82.8536 48.5108 84.7829 45.912 85.4902 45.0975C85.6832 44.8777 85.979 44.6579 86.1462 44.6062C86.4163 44.5286 86.4291 44.5545 86.4291 45.2268C86.4291 46.0413 86.5449 46.7654 86.6735 46.6749C86.7249 46.649 86.7764 46.1706 86.7892 45.6147C86.815 45.0587 86.8921 44.2312 86.9693 43.7787L87.1108 42.9512L87.5481 44.1666C87.8953 45.1104 87.9982 45.6147 88.0239 46.4163ZM100.255 43.9209C100.178 44.3864 99.9594 44.6967 99.0334 45.7052C97.7858 47.0886 97.1942 47.4636 95.4965 48.0195C93.1685 48.7823 91.2007 49.0539 89.786 48.8082C88.8857 48.6531 88.8599 48.6401 88.5899 48.123C88.3841 47.7092 88.3069 47.3343 88.3069 46.6102L88.294 45.6405L91.0593 45.563C95.1364 45.4466 97.4514 44.9553 99.4835 43.7787C99.8437 43.5718 100.178 43.4038 100.23 43.3908C100.294 43.3779 100.307 43.6236 100.255 43.9209ZM86.5963 43.9468C86.5577 44.1278 86.4548 44.2959 86.352 44.3347C86.1204 44.4252 86.1204 44.3476 86.3777 43.9597C86.6349 43.5589 86.6606 43.5589 86.5963 43.9468ZM83.9983 44.3217C83.9211 44.4252 83.3166 44.5674 82.5578 44.6579C81.0402 44.8389 79.3682 45.3044 78.2621 45.8215C77.5161 46.1836 75.8827 47.3472 74.4551 48.5496C73.722 49.1444 73.8634 48.9116 74.8538 47.8644C76.6672 45.912 79.0338 44.7743 82.1462 44.3476C83.8954 44.1149 84.1784 44.1149 83.9983 44.3217ZM102.455 47.2567L103.02 47.8514L101.837 48.6143L100.667 49.3771L100.217 48.8599C99.7794 48.3686 99.0334 46.9593 99.0334 46.649C99.0334 46.5585 99.3549 46.0801 99.7536 45.5759L100.474 44.6838L101.181 45.6793C101.567 46.2223 102.146 46.9335 102.455 47.2567ZM64.4617 45.9638C64.5903 46.3516 64.8347 47.192 65.0276 47.8126C65.2077 48.4462 65.5549 49.3254 65.7993 49.7779L66.2366 50.6054L66.0822 51.6656C65.9665 52.4543 65.9665 53.0232 66.0822 54.0187C66.1723 54.7428 66.2366 55.9064 66.2366 56.6046C66.2366 57.7811 66.198 57.9492 65.735 59.0611C65.1048 60.5739 64.9118 61.1557 64.989 61.4401C65.0405 61.6729 65.0919 61.5823 65.4649 60.6256C65.6064 60.2894 65.6192 60.3153 66.2366 61.4013L66.8797 62.5133L66.5453 63.9743C66.0822 66.0042 65.7478 66.8446 65.1048 67.5686C64.6932 68.0341 64.4231 68.2151 64.0758 68.2797C63.8186 68.3185 63.4971 68.3832 63.3813 68.409C63.227 68.4607 63.0212 68.228 62.6225 67.5298C61.9023 66.2757 61.1177 65.2672 60.3203 64.5432C59.973 64.2199 59.6772 63.9096 59.6772 63.845C59.6772 63.7803 59.51 63.6252 59.2914 63.5088C59.0856 63.3795 58.9055 63.1985 58.9055 63.0951C58.9055 62.8882 62.018 54.1997 62.3781 53.3981C62.4424 53.2559 62.5968 52.8034 62.7125 52.3896C62.8411 51.9888 62.9826 51.6526 63.0341 51.6526C63.0727 51.6526 63.1884 51.8207 63.2656 52.0276C63.4071 52.3508 63.3813 52.4672 63.0469 53.0232C62.5453 53.8894 62.1852 54.8979 61.9923 55.9969C61.8508 56.7727 61.8637 57.0571 62.0437 57.9751C62.2752 59.1258 62.6482 60.1989 62.7254 59.9662C62.764 59.8757 62.6868 59.5395 62.5711 59.1904C62.4553 58.8543 62.2752 58.169 62.1852 57.6777C62.0309 56.8632 62.0437 56.6821 62.2624 55.803C62.5196 54.7815 63.0855 53.4498 63.5357 52.8163C63.8572 52.3638 63.8958 51.4587 63.6257 50.9157C63.5099 50.6959 63.2913 50.0623 63.137 49.5064C62.7897 48.2264 62.8411 46.7266 63.2527 45.7957C63.4971 45.2397 63.5742 45.1751 63.8829 45.2139C64.1916 45.2526 64.2688 45.3432 64.4617 45.9638ZM61.0148 47.9678C61.3235 48.291 61.7865 48.9763 62.0437 49.5064C62.4682 50.3727 62.5067 50.5537 62.5067 51.5621C62.5067 52.7516 62.3524 53.0878 61.7479 53.2688C61.4521 53.3593 61.4521 53.3464 61.5293 52.7775C61.7479 51.3423 60.5004 49.3124 59.1628 48.9246C58.8412 48.8341 58.5711 48.7436 58.5454 48.7306C58.4168 48.6401 58.9827 47.8514 59.33 47.6446C59.9988 47.2308 60.3846 47.3084 61.0148 47.9678ZM59.2914 49.209C60.6418 49.7908 61.465 51.7044 61.3235 53.8894C61.272 54.6135 61.1949 54.9367 60.9634 55.247C60.7962 55.4797 60.5904 55.6607 60.5004 55.6607C60.346 55.6607 60.1788 54.523 60.2174 53.6179C60.2303 53.2688 60.1145 53.0619 59.5357 52.4801C58.6869 51.6139 58.2753 51.3423 57.3879 51.1225C56.7448 50.9674 56.7062 50.9286 56.7834 50.6183C56.9892 49.8038 57.838 48.9375 58.4297 48.9375C58.5583 48.9375 58.9441 49.0539 59.2914 49.209ZM105.348 49.9201C105.438 50.0365 106.184 50.6183 107.008 51.2131C108.667 52.4155 109.863 53.5533 109.567 53.6438C109.464 53.6696 108.975 53.7601 108.461 53.8506L107.535 54.0058L106.21 53.2559C104.204 52.131 102.635 51.1355 102.635 50.9933C102.635 50.8769 104.847 49.7391 105.091 49.7133C105.143 49.7133 105.258 49.8038 105.348 49.9201ZM63.6386 51.6009L63.6 51.9759L63.3813 51.5363C63.1241 51.0579 63.2013 50.7476 63.4971 51.045C63.6 51.1484 63.6643 51.3941 63.6386 51.6009ZM57.6965 51.5363C58.3911 51.7949 59.9344 53.1137 59.9344 53.4369C59.9344 53.5145 59.9988 54.1609 60.0759 54.872C60.1788 55.8547 60.1788 56.2296 60.0631 56.4494L59.9087 56.7339L59.6515 56.4236C59.5229 56.2555 59.2399 55.79 59.0341 55.4021C58.4554 54.3032 57.4522 53.3335 56.6033 53.0749L55.8959 52.8421L55.9345 52.2862C55.9474 51.9759 56.0503 51.5751 56.166 51.4199C56.3718 51.0838 56.4876 51.0838 57.6965 51.5363ZM57.0278 53.5662C57.748 53.9541 58.211 54.4971 58.7898 55.5573C59.0084 55.984 59.3685 56.527 59.5743 56.7727C59.9344 57.1864 59.9473 57.251 59.8058 57.6001C59.4586 58.4276 58.674 58.2078 57.3236 56.8761C56.8477 56.3977 56.4233 56.0486 56.3847 56.0745C56.2303 56.2425 58.0567 58.1173 58.5197 58.2724C58.6354 58.3112 57.9409 60.5092 57.6322 61.0522C57.5422 61.2333 57.5036 61.2203 57.4265 60.9488C57.375 60.7807 57.0278 60.0179 56.6548 59.2551C55.9474 57.807 55.5615 56.6821 55.3043 55.3116C55.1628 54.6264 55.1757 54.4195 55.3686 53.786C55.6001 53.0749 55.613 53.0619 55.9988 53.1524C56.2175 53.1912 56.6805 53.3852 57.0278 53.5662ZM67.3941 60.4834C67.3941 60.5739 67.3041 60.9617 67.1883 61.3496L66.9825 62.0349L66.7382 61.6599C66.5967 61.4531 66.3652 61.0652 66.2237 60.7937L65.9793 60.3153H66.6867C67.1883 60.3153 67.3941 60.367 67.3941 60.4834Z" fill="black"/>
<path d="M91.4192 27.6819C90.9176 27.9534 90.9691 28.0181 91.6122 27.9276L92.1523 27.8371L93.297 28.9619L94.4288 30.0868L94.3774 31.2375C94.3517 31.871 94.3774 32.3365 94.4288 32.2847C94.5446 32.1684 94.7889 30.2419 94.7246 30.0092C94.6989 29.9316 94.6475 29.7118 94.6089 29.5049C94.4931 28.9748 93.6571 28.1215 92.924 27.7853C92.1781 27.4363 91.908 27.4104 91.4192 27.6819Z" fill="black"/>
<path d="M91.0591 29.4015C91.0591 29.4662 91.2391 29.5437 91.4449 29.5825C91.7793 29.6601 91.8308 29.7248 91.8308 30.1126C91.8308 30.4617 91.7922 30.5522 91.6378 30.5005C91.535 30.4488 91.4449 30.4617 91.4449 30.5005C91.4449 30.6169 92.8082 31.2246 93.0655 31.2246C93.1684 31.2246 93.2841 31.1341 93.3356 31.0306C93.3999 30.8496 93.4385 30.8496 93.6442 31.0435C93.9529 31.3151 93.9529 31.1341 93.6571 30.6815C93.3742 30.2549 92.9626 29.9187 92.2552 29.5567C91.7022 29.2852 91.0591 29.1947 91.0591 29.4015ZM92.4738 30.0609C92.4738 30.1256 92.4224 30.1902 92.3452 30.1902C92.2809 30.1902 92.2166 30.1256 92.2166 30.0609C92.2166 29.9833 92.2809 29.9316 92.3452 29.9316C92.4224 29.9316 92.4738 29.9833 92.4738 30.0609Z" fill="black"/>
<path d="M97.9527 31.2116C97.8627 31.3409 98.3 31.6253 99.6247 32.2847C100.139 32.5433 100.949 33.0217 101.425 33.3449C102.441 34.0302 102.621 33.9268 102.068 32.9829C101.631 32.233 100.885 31.5995 100.101 31.315C99.4447 31.0823 98.0685 31.0177 97.9527 31.2116Z" fill="black"/>
<path d="M98.0042 33.0864C98.0042 33.1381 98.2614 33.2803 98.5701 33.4096C99.0588 33.6294 99.1231 33.694 99.0717 33.9914C99.0202 34.2629 98.943 34.3146 98.7501 34.25C98.1585 34.069 98.7244 34.5086 99.599 34.9223C100.448 35.3231 100.525 35.336 100.679 35.1292C100.834 34.9223 100.859 34.9223 101.039 35.155C101.129 35.2973 101.258 35.3748 101.297 35.3231C101.348 35.2714 101.31 35.155 101.22 35.0387C101.129 34.9352 101.091 34.7672 101.129 34.6637C101.181 34.5474 100.859 34.25 100.229 33.8104C99.4575 33.2674 99.1102 33.1122 98.6215 33.0605C98.2871 33.0346 98.0042 33.0346 98.0042 33.0864ZM99.779 34.056C99.8176 34.1595 99.7662 34.2112 99.6633 34.1724C99.5733 34.1466 99.4704 34.0431 99.4446 33.9526C99.4061 33.8492 99.4575 33.7975 99.5604 33.8363C99.6504 33.8621 99.7533 33.9655 99.779 34.056Z" fill="black"/>
<path d="M91.7408 34.3276C91.5093 34.4569 91.2649 34.6896 91.1878 34.8447C91.0077 35.168 91.072 36.0342 91.2649 36.0989C91.355 36.1247 91.3935 36.0213 91.355 35.7886C91.3164 35.5041 91.355 35.5429 91.5607 35.9825C91.9466 36.7971 92.3324 37.3013 92.5768 37.3013C92.7311 37.3013 92.7054 37.2237 92.4482 36.9393C92.0366 36.4997 91.7537 35.9437 91.6379 35.349C91.5736 34.974 91.6122 34.8447 91.908 34.5474C92.3453 34.1078 92.2681 34.0043 91.7408 34.3276Z" fill="black"/>
<path d="M88.7439 36.435C88.7439 36.6677 89.014 36.7841 89.5156 36.7841C89.7985 36.7841 89.94 36.9005 90.2101 37.3271C90.6217 38.0382 91.612 39.0597 92.1393 39.3312C92.8467 39.6932 93.7856 39.8871 95.3033 39.9647C96.2421 40.0164 96.8852 40.1199 97.0781 40.2362C97.2325 40.3267 97.4254 40.3784 97.4897 40.3397C97.9784 40.0294 97.0524 39.4993 95.7791 39.3441C94.5058 39.2019 93.0654 38.5425 91.1233 37.2237C90.1844 36.5902 89.6956 36.3445 89.2969 36.2928C88.8596 36.2411 88.7439 36.2799 88.7439 36.435ZM91.6377 37.896C92.4995 38.5037 94.2872 39.37 94.6988 39.37C94.866 39.37 94.9174 39.4217 94.8531 39.4863C94.7116 39.6286 92.7438 39.3182 92.2937 39.0984C91.7278 38.8011 91.1619 38.2968 90.866 37.8055C90.3516 36.991 90.3773 37.0039 91.6377 37.896Z" fill="black"/>
<path d="M96.5122 36.8229C96.4479 37.0556 96.2678 37.2884 96.1135 37.3659C95.7919 37.5082 95.7276 37.6892 95.9977 37.6892C96.3192 37.6892 96.8466 37.1591 96.8466 36.8488C96.8466 36.3704 96.6536 36.3575 96.5122 36.8229Z" fill="black"/>
<path d="M105.477 36.9005C105.335 36.991 105.296 37.2366 105.322 37.7926C105.348 38.5296 105.335 38.5683 104.923 38.8269C104.666 38.995 104.576 39.1114 104.705 39.1114C104.821 39.1114 105.065 38.995 105.258 38.8399C105.541 38.6201 105.592 38.4778 105.592 37.9348C105.592 37.4823 105.644 37.2754 105.785 37.2237C106.017 37.1332 106.042 36.7841 105.824 36.7841C105.734 36.7841 105.579 36.8358 105.477 36.9005Z" fill="black"/>
<path d="M103.933 38.4261C103.856 38.6977 103.792 39.008 103.792 39.1243C103.792 39.2407 103.663 39.4863 103.522 39.6803C103.367 39.8742 103.29 40.0682 103.329 40.1199C103.522 40.3138 104.023 39.4217 104.1 38.7364C104.203 37.896 104.113 37.7409 103.933 38.4261Z" fill="black"/>
<path d="M97.4895 39.0597C97.4895 39.1502 97.6053 39.3441 97.7467 39.5122C98.0683 39.913 98.0811 39.6673 97.7467 39.2407C97.6053 39.0597 97.4895 38.9821 97.4895 39.0597Z" fill="black"/>
<path d="M103.277 40.6494C103.277 40.7272 103.342 40.8179 103.406 40.8568C103.484 40.8957 103.535 40.8438 103.535 40.7401C103.535 40.6235 103.484 40.5328 103.406 40.5328C103.342 40.5328 103.277 40.5846 103.277 40.6494Z" fill="black"/>
<path d="M89.6443 45.9639C89.3613 46.2483 89.3227 46.5586 89.5157 47.0499C89.6057 47.3085 89.7214 47.3861 90.0301 47.3861C90.5574 47.3861 90.7889 46.9336 90.5446 46.3517C90.3131 45.7829 89.9787 45.6277 89.6443 45.9639Z" fill="black"/>
<path d="M96.9883 71.8611C96.8982 72.236 96.8725 72.6498 96.924 72.7661C96.9883 72.9601 96.8468 72.9859 95.4963 72.9859H94.0044L94.0944 78.2482C94.1459 81.1573 94.1973 83.5492 94.223 83.575C94.2488 83.6009 94.9176 83.6526 95.7278 83.6914C97.1683 83.756 97.7471 83.6397 97.7471 83.3035C97.7471 83.0966 98.8789 80.7435 98.9818 80.7435C99.0204 80.7435 99.0204 81.3383 98.9818 82.0623C98.9303 82.8251 98.9432 83.4716 99.0204 83.575C99.1104 83.7173 99.4448 83.7431 100.782 83.6655C101.696 83.6138 102.442 83.5621 102.454 83.5492C102.506 83.4587 102.737 73.1799 102.686 73.0894C102.647 73.0377 102.017 72.9859 101.271 72.9859H99.9335V72.2231C99.9335 71.7964 99.895 71.4215 99.8435 71.3956C99.7792 71.3568 99.149 71.2922 98.4287 71.2534L97.1297 71.1629L96.9883 71.8611ZM99.5477 73.0764C99.5477 73.1411 99.3676 73.5031 99.1619 73.891C98.9561 74.2789 98.5445 75.0805 98.2358 75.6623C97.9271 76.257 97.6442 76.7354 97.5928 76.7354C97.5413 76.7354 97.5156 75.895 97.5284 74.8607L97.5542 72.9859H98.5574C99.0975 72.9859 99.5477 73.0247 99.5477 73.0764Z" fill="#4CA736"/>
<path d="M135.045 72.5334C133.836 72.8695 132.28 73.71 131.843 74.2659C130.724 75.6752 130.467 77.2526 131.045 78.998C131.676 80.8857 132.576 81.8942 134.029 82.3079C134.788 82.5277 134.878 82.6182 134.814 83.0708C134.724 83.7431 134.929 83.8465 136.344 83.8465C137.605 83.8465 137.63 83.8465 137.746 83.5104C137.823 83.3293 137.875 83.0061 137.875 82.7992C137.875 82.5536 137.952 82.3855 138.106 82.3338C140.138 81.6227 140.833 80.7693 141.27 78.4421C141.45 77.5112 141.45 77.2655 141.296 76.4251C141.193 75.9079 141.026 75.2873 140.923 75.0417C140.627 74.3306 139.624 73.3221 138.762 72.8566C138.081 72.4946 137.81 72.43 136.859 72.3912C136.138 72.3524 135.508 72.4041 135.045 72.5334ZM137.939 77.731C137.81 78.4679 137.618 78.1964 137.63 77.2784L137.643 76.4122L137.836 76.8518C137.952 77.1362 137.991 77.4594 137.939 77.731ZM134.839 77.5112C134.852 77.718 134.814 77.899 134.762 77.899C134.698 77.899 134.659 77.6792 134.659 77.4207C134.659 76.8647 134.827 76.9423 134.839 77.5112Z" fill="#4CA736"/>
<path d="M52.5389 72.6886C51.8315 72.792 51.227 72.9084 51.2013 72.9342C51.137 72.9989 51.4199 76.2183 51.5357 76.7613L51.6 77.1233H52.809H54.0051L54.0565 76.6967L54.108 76.2829L54.1208 76.7484C54.1594 77.4854 54.3138 77.5241 55.6899 77.2138L56.9118 76.9294L57.0147 75.0676C57.0661 74.0462 57.079 73.1799 57.0533 73.154C57.0275 73.1153 56.3973 73.0894 55.6642 73.0765L54.3395 73.0506L54.3009 73.9557C54.288 74.447 54.2495 74.9771 54.2109 75.1193C54.1851 75.2615 54.1851 74.7831 54.198 74.0591C54.2366 72.8696 54.1466 72.43 53.9022 72.4817C53.8508 72.4946 53.2463 72.5852 52.5389 72.6886Z" fill="#4CA736"/>
<path d="M153.372 72.5334C153.308 72.5593 152.704 72.6498 152.048 72.7403L150.865 72.9084L150.942 73.7488C150.98 74.2272 151.07 74.9512 151.135 75.3779C151.199 75.8045 151.25 76.3734 151.25 76.632V77.1233H152.549C153.578 77.1233 153.887 77.1621 154.003 77.3173C154.131 77.4983 154.286 77.4853 155.379 77.2397L156.614 76.9552L156.704 75.908C156.742 75.3262 156.781 74.4728 156.781 74.0074V73.154L156.112 73.0635C155.006 72.9342 154.208 72.973 154.144 73.1411C154.106 73.2316 154.028 74.1496 153.964 75.1839L153.836 77.0587L153.913 74.8736C153.964 73.1282 153.938 72.6757 153.797 72.5851C153.617 72.4688 153.578 72.4688 153.372 72.5334Z" fill="#4CA736"/>
<path d="M17.1056 72.8437C16.231 73.0118 14.8033 73.6195 14.1217 74.1108C12.8355 75.0417 12.1925 76.8647 12.4497 78.8558C12.5912 79.9031 12.9642 80.9762 13.4272 81.7132C13.8902 82.4243 14.8677 83.3035 15.3178 83.394C15.5622 83.4457 15.8194 83.5362 15.8966 83.6009C15.9737 83.6655 16.5139 83.7948 17.0927 83.8724C18.3788 84.0663 19.0734 83.937 20.5524 83.2647C22.4817 82.3726 23.1119 80.9504 22.9961 77.8086C22.9318 76.0243 22.7132 75.4166 21.7871 74.3306C20.7325 73.0894 18.919 72.5076 17.1056 72.8437ZM19.3177 76.8259C19.6521 77.1621 19.7936 78.6102 19.5492 79.192C19.3049 79.7738 18.5589 80.1229 17.6457 80.0712C16.9769 80.0324 16.8998 79.9936 16.6297 79.5928C16.0638 78.7395 16.3467 77.1492 17.1313 76.7613C17.6586 76.5156 17.8129 76.4768 18.4303 76.5286C18.8419 76.5544 19.1505 76.6579 19.3177 76.8259Z" fill="#4CA736"/>
<path d="M28.1023 72.973C25.993 73.5548 24.7455 74.5504 24.1667 76.1148C23.6008 77.6275 23.858 79.8514 24.7969 81.5451C25.0027 81.9201 25.2471 82.2174 25.3242 82.1916C25.4143 82.1787 25.4529 82.2045 25.4143 82.2692C25.3114 82.4372 26.2503 83.2259 26.4432 83.1483C26.5461 83.1096 26.6104 83.1483 26.5847 83.2389C26.5718 83.3294 26.6618 83.3811 26.7905 83.3811C26.9062 83.3681 27.0091 83.4069 27.0091 83.4587C27.0091 83.6655 28.3853 83.8982 29.5171 83.8982C30.5717 83.8982 30.7647 83.8595 31.8064 83.4069C33.4141 82.6958 33.89 82.1011 34.3401 80.2005C34.7389 78.5326 34.6488 76.8259 34.0829 75.4942C33.7099 74.6279 32.6682 73.5936 31.755 73.1799C30.7003 72.7015 29.3499 72.6239 28.1023 72.973ZM30.5331 76.6191C30.9447 76.813 31.1248 77.3431 31.1248 78.3387C31.1248 79.6057 30.5846 80.097 29.2084 80.097C28.5396 80.097 28.411 80.0582 28.1795 79.7609C28.038 79.5799 27.8837 79.1273 27.8451 78.7395C27.6779 77.3948 28.4239 76.5027 29.7357 76.4898C29.993 76.4768 30.3531 76.5415 30.5331 76.6191Z" fill="#4CA736"/>
<path d="M39.7931 72.9213C38.6356 73.1799 37.1565 73.9298 36.5906 74.5504C36.3333 74.8477 35.9604 75.4166 35.7674 75.8174C35.4588 76.4768 35.433 76.6837 35.4459 78.093C35.4459 79.4376 35.4973 79.7609 35.7803 80.4849C36.1661 81.4675 36.6292 82.2174 37.2079 82.7346C37.6838 83.1613 38.5198 83.575 38.9185 83.5879C39.06 83.5879 39.24 83.6526 39.3301 83.7431C39.433 83.8465 39.9603 83.8982 40.8606 83.8982C42.1982 83.8982 42.2882 83.8853 43.2785 83.4069C44.5518 82.8122 44.9377 82.4502 45.4007 81.4546C46.1981 79.6962 46.2496 76.9552 45.5164 75.3778C45.375 75.0805 45.0277 74.6021 44.7448 74.2918C43.42 72.9083 41.8381 72.4688 39.7931 72.9213ZM42.0567 76.6449C42.6483 76.9423 42.8798 78.83 42.404 79.4635C42.121 79.8384 41.4394 80.097 40.7191 80.097C39.896 80.097 39.5616 79.8384 39.3429 79.0239C39.0728 78.0154 39.4844 77.0199 40.3075 76.6578C40.8091 76.438 41.6451 76.438 42.0567 76.6449Z" fill="#4CA736"/>
<path d="M124.113 72.8437C123.791 72.9083 123.135 73.1152 122.634 73.3091C121.09 73.9297 120.332 74.6279 119.791 75.9338C119.496 76.6708 119.444 76.9811 119.444 78.0283C119.444 79.0627 119.508 79.4376 119.83 80.3685C120.242 81.571 120.267 81.6097 121.232 82.6182C121.656 83.0708 122.029 83.3293 122.325 83.394C122.569 83.4457 122.827 83.5362 122.904 83.6009C123.148 83.7948 124.987 84.0146 125.708 83.9241C126.132 83.8594 126.865 83.6138 127.547 83.2776C129.245 82.4372 129.785 81.5451 130.029 79.0885C130.183 77.5887 129.952 75.9855 129.437 75.1063C129 74.3564 128.087 73.5419 127.277 73.1669C126.518 72.8178 125.065 72.6756 124.113 72.8437ZM126.325 76.8388C126.698 77.2138 126.814 78.9075 126.505 79.3859C126.209 79.8514 125.476 80.1099 124.64 80.0712C123.766 80.0194 123.457 79.6703 123.367 78.636C123.277 77.5758 123.688 76.9035 124.627 76.5544C125.039 76.3992 126.068 76.5673 126.325 76.8388Z" fill="#4CA736"/>
<path d="M69.1431 73.4643C69.1045 73.8004 68.9502 74.7184 68.8087 75.5071C68.59 76.7354 68.3585 78.0412 67.6383 82.1398C67.5611 82.5923 67.4454 82.9156 67.3939 82.8509C67.2782 82.7346 67.0595 81.8554 66.8666 80.7435C66.7894 80.3556 66.5708 79.3342 66.365 78.4808C66.1721 77.6275 65.8505 76.2311 65.6576 75.3778C65.1174 72.96 65.246 73.1798 64.3329 73.1798C63.8956 73.1928 62.8538 73.2057 62.0178 73.2186L60.5002 73.2445L60.2815 74.1107C60.1658 74.602 59.8056 76.0889 59.4841 77.4465C59.1626 78.7911 58.7124 80.653 58.4938 81.558C58.1851 82.7992 58.1208 83.2647 58.2237 83.4327C58.3651 83.6655 58.8796 83.7689 60.4744 83.8853L61.4648 83.9628L61.5419 83.4845C61.5934 83.2259 61.6706 82.7734 61.722 82.4889L61.812 81.9717L62.5065 81.933C63.7027 81.8683 63.7541 81.9071 63.9342 83.019L64.1014 83.9887L65.0788 83.9111C65.6062 83.8594 66.3393 83.7818 66.7123 83.7172C67.111 83.6396 67.6769 83.6525 68.127 83.7172C68.5386 83.7948 69.3489 83.8465 69.9276 83.8465C71.1366 83.8465 71.0466 83.9628 71.2524 82.295C71.3295 81.6873 71.4453 80.821 71.5096 80.3556C71.5739 79.8901 71.6253 79.3988 71.6382 79.2695C71.6382 78.7136 71.7797 79.2307 71.9726 80.5624C72.2298 82.3208 72.397 83.6138 72.4099 83.7689C72.4099 83.8982 75.6124 83.7301 75.9082 83.575C76.1912 83.4198 76.1783 83.3164 75.3166 77.718C74.8536 74.6667 74.5706 73.1798 74.4549 73.1022C74.352 73.0376 73.2588 72.9859 72.0241 72.9859C70.7893 72.9859 69.6575 72.9471 69.5032 72.9083C69.2588 72.8437 69.2202 72.9083 69.1431 73.4643ZM62.9567 78.3774C63.0339 78.8816 63.021 78.9334 62.7766 78.9334C62.4808 78.9334 62.4551 78.8041 62.5966 77.9766C62.6866 77.4077 62.8152 77.5499 62.9567 78.3774Z" fill="#4CA736"/>
<path d="M78.8663 72.9988C77.9274 73.0506 77.0786 73.1281 76.9628 73.1669C76.8085 73.2316 76.7828 73.4772 76.8085 74.5633L76.8471 75.895L77.8503 75.8821H78.8535L78.7892 76.3346C78.7506 76.5932 78.6477 78.3386 78.5705 80.2005C78.429 83.1225 78.4419 83.6267 78.5962 83.7302C78.8792 83.9241 82.0303 83.8465 82.1975 83.6397C82.2875 83.5233 82.3132 82.2174 82.2875 79.5928C82.236 75.3003 82.1846 75.5718 83.0849 75.5718H83.5865L83.5222 74.3694C83.4836 73.7229 83.4322 73.1023 83.3936 73.0118C83.3421 72.8308 81.773 72.8308 78.8663 72.9988Z" fill="#4CA736"/>
<path d="M88.2295 73.2316L86.6347 73.3092L85.4128 78.3387C84.281 83.0449 84.2167 83.3811 84.4225 83.5362C84.654 83.7043 85.6315 83.8336 86.9433 83.8853L87.6379 83.9112L87.7793 83.032C87.8694 82.5536 87.8951 82.1657 87.8565 82.1657C87.8179 82.1657 87.8694 82.1011 87.9723 82.0364C88.0752 81.9718 88.5382 81.9071 89.0012 81.9071H89.85L90.0815 82.9544L90.3131 84.0017L90.9819 83.9241C91.342 83.8853 92.0236 83.8207 92.4995 83.769C92.9754 83.7302 93.4255 83.6267 93.4898 83.5362C93.567 83.4457 93.5413 83.0966 93.4255 82.5536C93.3226 82.0882 93.1812 81.4805 93.1169 81.196C93.0526 80.9116 92.6281 78.998 92.1651 76.9552C91.7021 74.8995 91.3163 73.2057 91.3163 73.1928C91.3163 73.1411 89.9272 73.154 88.2295 73.2316ZM89.1041 78.2482C89.2198 78.8946 89.207 78.9075 88.9112 78.9722C88.6025 79.0239 88.5896 79.011 88.6796 78.455C88.7697 77.8473 88.8726 77.4724 88.9369 77.537C88.9626 77.5629 89.0269 77.8732 89.1041 78.2482Z" fill="#4CA736"/>
<path d="M110.647 73.2574C110.519 73.3867 110.48 74.615 110.48 78.5067C110.48 83.2001 110.493 83.5879 110.711 83.7043C110.827 83.769 111.638 83.8336 112.499 83.8336C114.274 83.8595 114.287 83.8595 114.326 82.9415C114.326 82.7217 114.377 82.5536 114.441 82.5536C114.493 82.5536 114.994 82.9027 115.547 83.3294C116.126 83.756 116.641 84.0534 116.718 84.0017C117.052 83.8077 118.711 81.8296 118.711 81.6356C118.711 81.5322 118.454 81.2477 118.133 81.0021C117.811 80.7564 117.554 80.5108 117.554 80.4591C117.554 80.3944 117.502 80.3815 117.425 80.4203C117.361 80.4591 117.297 80.4461 117.297 80.3815C117.297 80.3298 116.924 79.9677 116.461 79.6057C115.998 79.2308 115.625 78.8688 115.625 78.8041C115.625 78.7524 116.242 78.1318 117.014 77.4465C117.772 76.7613 118.467 76.089 118.557 75.9597C118.698 75.7528 118.647 75.6364 118.043 74.9124C117.682 74.4599 117.155 73.8522 116.885 73.5677L116.409 73.0506L115.856 73.5677C115.547 73.8522 115.007 74.3694 114.634 74.7185L113.978 75.3391L113.888 74.3694L113.798 73.3997L112.872 73.3221C112.371 73.2704 111.702 73.2057 111.38 73.1669C111.007 73.1281 110.75 73.154 110.647 73.2574Z" fill="#4CA736"/>
<path d="M142.685 73.3996C142.633 73.4901 142.543 74.8348 142.492 76.3992C142.247 83.575 142.247 83.5621 142.44 83.7172C142.646 83.8853 149.398 83.8206 149.578 83.6396C149.733 83.4845 149.746 83.3293 149.72 81.739L149.707 80.3556H147.894C146.505 80.3556 146.093 80.3168 146.132 80.1875C146.17 80.0841 146.556 80.0194 147.302 79.9936C148.562 79.9548 148.46 80.0841 148.627 78.3128C148.73 77.0586 148.678 76.994 147.315 76.994C146.44 76.994 146.234 76.9552 146.234 76.8C146.234 76.632 146.505 76.6061 147.894 76.6061H149.553L149.604 75.0804C149.63 74.253 149.604 73.4901 149.54 73.3996C149.373 73.1798 142.826 73.1669 142.685 73.3996Z" fill="#4CA736"/>
<path d="M105.824 77.2138C105.091 77.2526 104.666 77.3173 104.576 77.4336C104.461 77.5629 104.473 78.0025 104.589 79.1403L104.769 80.6789L106.673 80.7435C107.895 80.7823 108.602 80.7564 108.615 80.6789C108.731 80.291 108.859 77.5888 108.782 77.369C108.679 77.1104 108.731 77.1104 105.824 77.2138Z" fill="#4CA736"/>
</svg>
