<svg width="39" height="46" viewBox="0 0 39 46" fill="none" xmlns="http://www.w3.org/2000/svg">
<path d="M37.3198 20.0128L5.38965 0.520803C4.85132 0.191851 4.23475 0.0122698 3.60362 0.000606713C2.97248 -0.0110564 2.34967 0.145621 1.79951 0.454458C1.25458 0.758498 0.800639 1.20189 0.484368 1.73905C0.168097 2.2762 0.000910519 2.88772 0 3.51073V42.4903C0.00410599 43.4249 0.379921 44.3195 1.04483 44.9777C1.70974 45.6358 2.60932 46.0035 3.54582 46C4.19948 45.9997 4.84045 45.8199 5.39852 45.4803L37.3198 25.9883C37.8329 25.6762 38.257 25.2376 38.5512 24.7148C38.8455 24.192 39 23.6024 39 23.0027C39 22.4031 38.8455 21.8135 38.5512 21.2907C38.257 20.7679 37.8329 20.3293 37.3198 20.0172V20.0128ZM3.54582 42.4483V3.53948L35.4206 23.0005L3.54582 42.4483Z" fill="#4CA736"/>
</svg>
